# xmcd
#
# Track frame offsets: 
#        150
#        12795
#        27975
#        48495
#        60495
#        72735
#        103710
#        131460
#        148020
#        165495
#        187140
#        201705
#        233730
#        249630
#        270585
#
# Disc length: 3851 seconds
#
# Revision: 0
# Processed by: cddbd v1.5.2PL0 Copyright (c) Steve Scherf et al.
# Submitted via: ExactAudioCopyFreeDBPlugin 1.0
#
DISCID=e00f090f
DTITLE=Bob Dylan - L'explosion Rock
DYEAR=1900
DGENRE=Country
TTITLE0=Blowin' In The Wind
TTITLE1=Girl From The North Country
TTITLE2=Master Of War
TTITLE3=One Too Many Mornings
TTITLE4=Song To Woody
TTITLE5=A Hard Rain's A-Gonna Fall
TTITLE6=Like A Rolling Stone
TTITLE7=Don't Think Twice, It's All Right
TTITLE8=To Ramona
TTITLE9=I Shall Be Free
TTITLE10=That Times They Are A-Changin'
TTITLE11=With God On Our Side
TTITLE12=Only A Pawn In Their Game
TTITLE13=Boots Of Spanish Leather
TTITLE14=All I Really Want To Do
EXTD=
EXTT0=
EXTT1=
EXTT2=
EXTT3=
EXTT4=
EXTT5=
EXTT6=
EXTT7=
EXTT8=
EXTT9=
EXTT10=
EXTT11=
EXTT12=
EXTT13=
EXTT14=
PLAYORDER=
